<svg xmlns="http://www.w3.org/2000/svg" xmlns:xlink="http://www.w3.org/1999/xlink" width="500" zoomAndPan="magnify" viewBox="0 0 375 374.999991" height="500" preserveAspectRatio="xMidYMid meet" version="1.0"><defs><g/></defs><g fill="#004aad" fill-opacity="0.302"><g transform="translate(281.422516, 44.543786)"><g><path d="M -26.59375 156.46875 C -22.84375 169.195312 -19.140625 181.347656 -15.484375 192.921875 C -11.835938 204.503906 -6.675781 213.21875 0 219.0625 L -109.53125 219.0625 C -105.769531 210.289062 -104.828125 200.640625 -106.703125 190.109375 C -108.585938 179.578125 -111.09375 168.363281 -114.21875 156.46875 C -117.144531 145.625 -120.171875 134.046875 -123.296875 121.734375 C -126.421875 109.421875 -129.648438 97.316406 -132.984375 85.421875 C -136.328125 73.535156 -139.71875 62.6875 -143.15625 52.875 C -146.601562 43.070312 -149.941406 35.25 -153.171875 29.40625 C -156.410156 23.570312 -159.597656 20.65625 -162.734375 20.65625 C -166.484375 20.65625 -170.078125 24.148438 -173.515625 31.140625 C -176.960938 38.128906 -179.78125 47.097656 -181.96875 58.046875 C -184.164062 69.003906 -185.265625 80.320312 -185.265625 92 C -185.265625 108.0625 -183.332031 120.941406 -179.46875 130.640625 C -175.613281 140.347656 -170.867188 147.910156 -165.234375 153.328125 C -159.597656 158.753906 -154.015625 162.925781 -148.484375 165.84375 C -142.960938 168.769531 -138.269531 171.273438 -134.40625 173.359375 C -130.550781 175.453125 -128.625 178.0625 -128.625 181.1875 C -128.625 186.195312 -130.8125 191.203125 -135.1875 196.203125 C -139.570312 201.210938 -145.414062 205.800781 -152.71875 209.96875 C -160.019531 214.144531 -167.894531 217.484375 -176.34375 219.984375 C -184.789062 222.492188 -193.082031 223.75 -201.21875 223.75 C -209.5625 223.75 -216.179688 221.816406 -221.078125 217.953125 C -225.984375 214.097656 -229.582031 209.144531 -231.875 203.09375 C -234.175781 197.039062 -235.328125 190.570312 -235.328125 183.6875 C -235.328125 176.175781 -233.8125 166.421875 -230.78125 154.421875 C -227.757812 142.429688 -223.847656 129.03125 -219.046875 114.21875 C -214.253906 99.40625 -208.9375 83.863281 -203.09375 67.59375 C -197.25 51.320312 -191.515625 35.050781 -185.890625 18.78125 C -183.796875 12.3125 -181.394531 7.820312 -178.6875 5.3125 C -175.976562 2.8125 -173.160156 1.300781 -170.234375 0.78125 C -167.316406 0.257812 -164.394531 0 -161.46875 0 L -92.9375 0 C -86.46875 0 -80.988281 2.34375 -76.5 7.03125 C -72.019531 11.726562 -68.160156 17.832031 -64.921875 25.34375 C -61.691406 32.851562 -58.929688 40.9375 -56.640625 49.59375 C -54.347656 58.257812 -52.15625 66.554688 -50.0625 74.484375 C -47.5625 84.285156 -45.21875 93.148438 -43.03125 101.078125 C -40.84375 109.003906 -38.441406 117.242188 -35.828125 125.796875 C -33.222656 134.347656 -30.144531 144.570312 -26.59375 156.46875 Z M -26.59375 156.46875 "/></g></g></g><g fill="#004aad" fill-opacity="0.502"><g transform="translate(295.25228, 58.37355)"><g><path d="M -26.59375 156.46875 C -22.84375 169.195312 -19.140625 181.347656 -15.484375 192.921875 C -11.835938 204.503906 -6.675781 213.21875 0 219.0625 L -109.53125 219.0625 C -105.769531 210.289062 -104.828125 200.640625 -106.703125 190.109375 C -108.585938 179.578125 -111.09375 168.363281 -114.21875 156.46875 C -117.144531 145.625 -120.171875 134.046875 -123.296875 121.734375 C -126.421875 109.421875 -129.648438 97.316406 -132.984375 85.421875 C -136.328125 73.535156 -139.71875 62.6875 -143.15625 52.875 C -146.601562 43.070312 -149.941406 35.25 -153.171875 29.40625 C -156.410156 23.570312 -159.597656 20.65625 -162.734375 20.65625 C -166.484375 20.65625 -170.078125 24.148438 -173.515625 31.140625 C -176.960938 38.128906 -179.78125 47.097656 -181.96875 58.046875 C -184.164062 69.003906 -185.265625 80.320312 -185.265625 92 C -185.265625 108.0625 -183.332031 120.941406 -179.46875 130.640625 C -175.613281 140.347656 -170.867188 147.910156 -165.234375 153.328125 C -159.597656 158.753906 -154.015625 162.925781 -148.484375 165.84375 C -142.960938 168.769531 -138.269531 171.273438 -134.40625 173.359375 C -130.550781 175.453125 -128.625 178.0625 -128.625 181.1875 C -128.625 186.195312 -130.8125 191.203125 -135.1875 196.203125 C -139.570312 201.210938 -145.414062 205.800781 -152.71875 209.96875 C -160.019531 214.144531 -167.894531 217.484375 -176.34375 219.984375 C -184.789062 222.492188 -193.082031 223.75 -201.21875 223.75 C -209.5625 223.75 -216.179688 221.816406 -221.078125 217.953125 C -225.984375 214.097656 -229.582031 209.144531 -231.875 203.09375 C -234.175781 197.039062 -235.328125 190.570312 -235.328125 183.6875 C -235.328125 176.175781 -233.8125 166.421875 -230.78125 154.421875 C -227.757812 142.429688 -223.847656 129.03125 -219.046875 114.21875 C -214.253906 99.40625 -208.9375 83.863281 -203.09375 67.59375 C -197.25 51.320312 -191.515625 35.050781 -185.890625 18.78125 C -183.796875 12.3125 -181.394531 7.820312 -178.6875 5.3125 C -175.976562 2.8125 -173.160156 1.300781 -170.234375 0.78125 C -167.316406 0.257812 -164.394531 0 -161.46875 0 L -92.9375 0 C -86.46875 0 -80.988281 2.34375 -76.5 7.03125 C -72.019531 11.726562 -68.160156 17.832031 -64.921875 25.34375 C -61.691406 32.851562 -58.929688 40.9375 -56.640625 49.59375 C -54.347656 58.257812 -52.15625 66.554688 -50.0625 74.484375 C -47.5625 84.285156 -45.21875 93.148438 -43.03125 101.078125 C -40.84375 109.003906 -38.441406 117.242188 -35.828125 125.796875 C -33.222656 134.347656 -30.144531 144.570312 -26.59375 156.46875 Z M -26.59375 156.46875 "/></g></g></g><g fill="#004aad" fill-opacity="1"><g transform="translate(309.082015, 72.203275)"><g><path d="M -26.59375 156.46875 C -22.84375 169.195312 -19.140625 181.347656 -15.484375 192.921875 C -11.835938 204.503906 -6.675781 213.21875 0 219.0625 L -109.53125 219.0625 C -105.769531 210.289062 -104.828125 200.640625 -106.703125 190.109375 C -108.585938 179.578125 -111.09375 168.363281 -114.21875 156.46875 C -117.144531 145.625 -120.171875 134.046875 -123.296875 121.734375 C -126.421875 109.421875 -129.648438 97.316406 -132.984375 85.421875 C -136.328125 73.535156 -139.71875 62.6875 -143.15625 52.875 C -146.601562 43.070312 -149.941406 35.25 -153.171875 29.40625 C -156.410156 23.570312 -159.597656 20.65625 -162.734375 20.65625 C -166.484375 20.65625 -170.078125 24.148438 -173.515625 31.140625 C -176.960938 38.128906 -179.78125 47.097656 -181.96875 58.046875 C -184.164062 69.003906 -185.265625 80.320312 -185.265625 92 C -185.265625 108.0625 -183.332031 120.941406 -179.46875 130.640625 C -175.613281 140.347656 -170.867188 147.910156 -165.234375 153.328125 C -159.597656 158.753906 -154.015625 162.925781 -148.484375 165.84375 C -142.960938 168.769531 -138.269531 171.273438 -134.40625 173.359375 C -130.550781 175.453125 -128.625 178.0625 -128.625 181.1875 C -128.625 186.195312 -130.8125 191.203125 -135.1875 196.203125 C -139.570312 201.210938 -145.414062 205.800781 -152.71875 209.96875 C -160.019531 214.144531 -167.894531 217.484375 -176.34375 219.984375 C -184.789062 222.492188 -193.082031 223.75 -201.21875 223.75 C -209.5625 223.75 -216.179688 221.816406 -221.078125 217.953125 C -225.984375 214.097656 -229.582031 209.144531 -231.875 203.09375 C -234.175781 197.039062 -235.328125 190.570312 -235.328125 183.6875 C -235.328125 176.175781 -233.8125 166.421875 -230.78125 154.421875 C -227.757812 142.429688 -223.847656 129.03125 -219.046875 114.21875 C -214.253906 99.40625 -208.9375 83.863281 -203.09375 67.59375 C -197.25 51.320312 -191.515625 35.050781 -185.890625 18.78125 C -183.796875 12.3125 -181.394531 7.820312 -178.6875 5.3125 C -175.976562 2.8125 -173.160156 1.300781 -170.234375 0.78125 C -167.316406 0.257812 -164.394531 0 -161.46875 0 L -92.9375 0 C -86.46875 0 -80.988281 2.34375 -76.5 7.03125 C -72.019531 11.726562 -68.160156 17.832031 -64.921875 25.34375 C -61.691406 32.851562 -58.929688 40.9375 -56.640625 49.59375 C -54.347656 58.257812 -52.15625 66.554688 -50.0625 74.484375 C -47.5625 84.285156 -45.21875 93.148438 -43.03125 101.078125 C -40.84375 109.003906 -38.441406 117.242188 -35.828125 125.796875 C -33.222656 134.347656 -30.144531 144.570312 -26.59375 156.46875 Z M -26.59375 156.46875 "/></g></g></g></svg>